<svg xmlns="http://www.w3.org/2000/svg" width="1130" height="650.6" viewBox="0 0 1130 650.6">
  <path id="Path_118" data-name="Path 118" d="M285.2,720.5V280.9L10,500.6,285.2,720.5ZM1140,228.1a56.868,56.868,0,0,1-56.9,56.9h-548a56.868,56.868,0,0,1-56.9-56.9h0a56.868,56.868,0,0,1,56.9-56.9h548a56.8,56.8,0,0,1,56.9,56.9Zm0,536.8a56.868,56.868,0,0,1-56.9,56.9h-548a56.868,56.868,0,0,1-56.9-56.9h0A56.868,56.868,0,0,1,535.1,708h548a56.932,56.932,0,0,1,56.9,56.9Zm0-264.9a56.868,56.868,0,0,1-56.9,56.9h-548A56.868,56.868,0,0,1,478.2,500h0a56.868,56.868,0,0,1,56.9-56.9h548A56.868,56.868,0,0,1,1140,500Z" transform="translate(-10 -171.2)" fill="#223d8f"/>
</svg>
