<svg xmlns="http://www.w3.org/2000/svg" width="1130" height="650.601" viewBox="0 0 1130 650.601">
  <path id="Path_118" data-name="Path 118" d="M864.8,720.5V280.9L1140,500.6,864.8,720.5ZM10,228.1A56.868,56.868,0,0,0,66.9,285h548a56.868,56.868,0,0,0,56.9-56.9h0a56.868,56.868,0,0,0-56.9-56.9H66.9A56.8,56.8,0,0,0,10,228.1Zm0,536.8a56.868,56.868,0,0,0,56.9,56.9h548a56.868,56.868,0,0,0,56.9-56.9h0A56.868,56.868,0,0,0,614.9,708H66.9A56.932,56.932,0,0,0,10,764.9ZM10,500a56.868,56.868,0,0,0,56.9,56.9h548A56.868,56.868,0,0,0,671.8,500h0a56.868,56.868,0,0,0-56.9-56.9H66.9A56.868,56.868,0,0,0,10,500Z" transform="translate(-10 -171.2)" fill="#223d8f"/>
</svg>
